<?xml version="1.0" encoding="UTF-8" standalone="no"?>
<!-- Created with Inkscape (http://www.inkscape.org/) -->

<svg
   xmlns:dc="http://purl.org/dc/elements/1.1/"
   xmlns:cc="http://creativecommons.org/ns#"
   xmlns:rdf="http://www.w3.org/1999/02/22-rdf-syntax-ns#"
   xmlns:svg="http://www.w3.org/2000/svg"
   xmlns="http://www.w3.org/2000/svg"
   xmlns:sodipodi="http://sodipodi.sourceforge.net/DTD/sodipodi-0.dtd"
   xmlns:inkscape="http://www.inkscape.org/namespaces/inkscape"
   width="244.42789mm"
   height="85.262802mm"
   viewBox="0 0 866.08306 302.11229"
   id="svg2"
   version="1.1"
   inkscape:version="0.91 r13725"
   sodipodi:docname="laundry-title.svg">
  <defs
     id="defs4">
    <clipPath
       clipPathUnits="userSpaceOnUse"
       id="clipPath4291">
      <path
         sodipodi:nodetypes="ccccc"
         inkscape:connector-curvature="0"
         id="path4293"
         d="m 22.857143,755.21935 c 0,0 104.307417,323.45985 131.428567,394.28575 129.9783,93.6831 394.53622,101.1659 545.71429,0 31.01241,-53.3641 165.71429,-400.00004 165.71429,-400.00004 z"
         style="color:#000000;clip-rule:nonzero;display:inline;overflow:visible;visibility:visible;opacity:1;isolation:auto;mix-blend-mode:normal;color-interpolation:sRGB;color-interpolation-filters:linearRGB;solid-color:#000000;solid-opacity:1;fill:#a3e4ff;fill-opacity:0.99926471;fill-rule:evenodd;stroke:none;stroke-width:8.19999981;stroke-linecap:round;stroke-linejoin:miter;stroke-miterlimit:4;stroke-dasharray:none;stroke-dashoffset:0;stroke-opacity:1;color-rendering:auto;image-rendering:auto;shape-rendering:auto;text-rendering:auto;enable-background:accumulate" />
    </clipPath>
  </defs>
  <sodipodi:namedview
     id="base"
     pagecolor="#ffffff"
     bordercolor="#666666"
     borderopacity="1.0"
     inkscape:pageopacity="0.0"
     inkscape:pageshadow="2"
     inkscape:zoom="0.98994949"
     inkscape:cx="570.19272"
     inkscape:cy="11.474358"
     inkscape:document-units="px"
     inkscape:current-layer="layer1"
     showgrid="false"
     inkscape:snap-intersection-paths="true"
     inkscape:object-paths="true"
     inkscape:snap-nodes="false"
     fit-margin-top="0"
     fit-margin-left="0"
     fit-margin-right="0"
     fit-margin-bottom="0"
     inkscape:window-width="1411"
     inkscape:window-height="855"
     inkscape:window-x="29"
     inkscape:window-y="1"
     inkscape:window-maximized="1">
    <inkscape:grid
       type="xygrid"
       id="grid4312"
       originx="490.64848"
       originy="-973.87295" />
  </sodipodi:namedview>
  <metadata
     id="metadata7">
    <rdf:RDF>
      <cc:Work
         rdf:about="">
        <dc:format>image/svg+xml</dc:format>
        <dc:type
           rdf:resource="http://purl.org/dc/dcmitype/StillImage" />
        <dc:title></dc:title>
      </cc:Work>
    </rdf:RDF>
  </metadata>
  <g
     inkscape:label="Layer 1"
     inkscape:groupmode="layer"
     id="layer1"
     transform="translate(490.64849,223.62308)">
    <text
       xml:space="preserve"
       style="color:#000000;font-style:normal;font-variant:normal;font-weight:normal;font-stretch:normal;font-size:101.11646271px;line-height:160.00000238%;font-family:'Marker Felt';-inkscape-font-specification:'Marker Felt';text-align:start;text-anchor:start;clip-rule:nonzero;display:inline;overflow:visible;visibility:visible;opacity:1;isolation:auto;mix-blend-mode:normal;color-interpolation:sRGB;color-interpolation-filters:linearRGB;solid-color:#000000;solid-opacity:1;fill:#75d6ff;fill-opacity:1;fill-rule:evenodd;stroke:none;stroke-width:8.19999981;stroke-linecap:round;stroke-linejoin:miter;stroke-miterlimit:4;stroke-dasharray:none;stroke-dashoffset:0;stroke-opacity:1;color-rendering:auto;image-rendering:auto;shape-rendering:auto;text-rendering:auto;enable-background:accumulate"
       x="-368.68005"
       y="-22.982899"
       id="text4171"
       sodipodi:linespacing="160%"
       transform="scale(1.1790915,0.84811059)"><tspan
         sodipodi:role="line"
         x="-368.68005"
         y="-22.982899"
         id="tspan4215"
         style="font-style:normal;font-variant:normal;font-weight:normal;font-stretch:normal;line-height:160.00000238%;font-family:'Marker Felt';-inkscape-font-specification:'Marker Felt';text-align:start;text-anchor:start;fill:#75d6ff;fill-opacity:1">LAUN<tspan
   style="fill:#75d6ff;fill-opacity:1"
   id="tspan4363">DRY</tspan></tspan><tspan
         sodipodi:role="line"
         x="-368.68005"
         y="138.80345"
         id="tspan4175"
         style="font-style:normal;font-variant:normal;font-weight:normal;font-stretch:normal;font-size:51.85951614px;line-height:160.00000238%;font-family:'Marker Felt';-inkscape-font-specification:'Marker Felt';text-align:start;baseline-shift:super;text-anchor:start;fill:#75d6ff;fill-opacity:1" /></text>
    <text
       xml:space="preserve"
       style="color:#000000;font-style:normal;font-variant:normal;font-weight:normal;font-stretch:normal;font-size:180px;font-family:Chalkduster;-inkscape-font-specification:Chalkduster;text-align:center;text-anchor:middle;clip-rule:nonzero;display:inline;overflow:visible;visibility:visible;opacity:1;isolation:auto;mix-blend-mode:normal;color-interpolation:sRGB;color-interpolation-filters:linearRGB;solid-color:#000000;solid-opacity:1;fill:#dc3934;fill-opacity:0.99926471;fill-rule:evenodd;stroke:none;stroke-width:8.19999981;stroke-linecap:round;stroke-linejoin:miter;stroke-miterlimit:4;stroke-dasharray:none;stroke-dashoffset:0;stroke-opacity:1;color-rendering:auto;image-rendering:auto;shape-rendering:auto;text-rendering:auto;enable-background:accumulate"
       x="682.85712"
       y="355.21936"
       id="text4219"><tspan
         sodipodi:role="line"
         x="682.85712"
         y="355.21936"
         id="tspan4223" /></text>
    <path
       style="color:#000000;clip-rule:nonzero;display:inline;overflow:visible;visibility:visible;opacity:1;isolation:auto;mix-blend-mode:normal;color-interpolation:sRGB;color-interpolation-filters:linearRGB;solid-color:#000000;solid-opacity:1;fill:none;fill-opacity:1;fill-rule:evenodd;stroke:none;stroke-width:8.80000019;stroke-linecap:round;stroke-linejoin:miter;stroke-miterlimit:4;stroke-dasharray:none;stroke-dashoffset:0;stroke-opacity:1;color-rendering:auto;image-rendering:auto;shape-rendering:auto;text-rendering:auto;enable-background:accumulate"
       d="m -16.162441,615.97631 c 0,0 -32.324881,-42.42641 -8.08122,-72.73099 C 0,512.94075 -6.0609153,531.12349 -6.0609153,531.12349 l -62.6294577,-28.28427 0,12.12183"
       id="path4295"
       inkscape:connector-curvature="0" />
    <g
       id="g4330"
       transform="matrix(0.34795572,0,0,0.36199863,61.777243,-364.09046)">
      <path
         sodipodi:nodetypes="ccccc"
         inkscape:connector-curvature="0"
         id="path4270"
         d="m 22.857143,755.21935 c 0,0 104.307417,323.45985 131.428567,394.28575 129.9783,93.6831 394.53622,101.1659 545.71429,0 31.01241,-53.3641 165.71429,-400.00004 165.71429,-400.00004 z"
         style="color:#000000;clip-rule:nonzero;display:inline;overflow:visible;visibility:visible;opacity:1;isolation:auto;mix-blend-mode:normal;color-interpolation:sRGB;color-interpolation-filters:linearRGB;solid-color:#000000;solid-opacity:1;fill:#a3e4ff;fill-opacity:0.99926471;fill-rule:evenodd;stroke:none;stroke-width:8.19999981;stroke-linecap:round;stroke-linejoin:miter;stroke-miterlimit:4;stroke-dasharray:none;stroke-dashoffset:0;stroke-opacity:1;color-rendering:auto;image-rendering:auto;shape-rendering:auto;text-rendering:auto;enable-background:accumulate" />
      <path
         clip-path="url(#clipPath4291)"
         inkscape:connector-curvature="0"
         id="path4287"
         d="m 25.714286,758.07649 c 0,0 357.142854,477.14281 517.142854,448.57141 160,-28.5714 162.85715,-28.5714 162.85715,-28.5714 0,0 -354.28572,148.5714 -545.71429,-22.8572 C -31.428571,983.79078 25.714286,758.07649 25.714286,758.07649 Z"
         style="color:#000000;clip-rule:nonzero;display:inline;overflow:visible;visibility:visible;opacity:1;isolation:auto;mix-blend-mode:normal;color-interpolation:sRGB;color-interpolation-filters:linearRGB;solid-color:#000000;solid-opacity:1;fill:#75d6ff;fill-opacity:1;fill-rule:evenodd;stroke:none;stroke-width:8.80000019;stroke-linecap:round;stroke-linejoin:miter;stroke-miterlimit:4;stroke-dasharray:none;stroke-dashoffset:0;stroke-opacity:1;color-rendering:auto;image-rendering:auto;shape-rendering:auto;text-rendering:auto;enable-background:accumulate" />
      <ellipse
         ry="61.42857"
         rx="425.71429"
         cy="742.36218"
         cx="442.85715"
         id="path4261"
         style="color:#000000;clip-rule:nonzero;display:inline;overflow:visible;visibility:visible;opacity:1;isolation:auto;mix-blend-mode:normal;color-interpolation:sRGB;color-interpolation-filters:linearRGB;solid-color:#000000;solid-opacity:1;fill:#008eca;fill-opacity:1;fill-rule:evenodd;stroke:none;stroke-width:8.19999981;stroke-linecap:round;stroke-linejoin:miter;stroke-miterlimit:4;stroke-dasharray:none;stroke-dashoffset:0;stroke-opacity:1;color-rendering:auto;image-rendering:auto;shape-rendering:auto;text-rendering:auto;enable-background:accumulate" />
      <g
         transform="translate(31.499712,11.916901)"
         id="g4314">
        <path
           inkscape:connector-curvature="0"
           style="color:#000000;clip-rule:nonzero;display:inline;overflow:visible;visibility:visible;opacity:1;isolation:auto;mix-blend-mode:normal;color-interpolation:sRGB;color-interpolation-filters:linearRGB;solid-color:#000000;solid-opacity:1;fill:#a3e4ff;fill-opacity:1;fill-rule:evenodd;stroke:none;stroke-width:8.19999981;stroke-linecap:round;stroke-linejoin:miter;stroke-miterlimit:4;stroke-dasharray:none;stroke-dashoffset:0;stroke-opacity:1;color-rendering:auto;image-rendering:auto;shape-rendering:auto;text-rendering:auto;enable-background:accumulate"
           d="m -19.402344,536.94531 c -6.512523,0.67599 -12.645492,3.87098 -18.152344,10.56055 -1.831169,2.22445 -3.61155,4.72845 -5.302734,7.71289 -48.571428,85.71428 120,217.14258 120,217.14258 l 65.714842,17.14453 c 0,0 -160.625536,-147.24387 -160.535154,-187.76367 -0.672146,-1.10461 -0.591129,-0.86546 -1.363282,-2.19336 -1.752232,-3.01339 -3.710937,-6.55106 -5.644531,-10.38477 -1.933594,-3.8337 -3.840402,-7.96177 -5.492187,-12.1582 -0.825893,-2.09821 -1.589216,-4.21331 -2.257813,-6.31641 -0.668596,-2.10309 -1.243861,-4.19531 -1.697265,-6.24609 -0.453405,-2.05078 -0.784529,-4.06069 -0.964844,-6.00195 -0.180316,-1.94127 -0.209264,-3.81334 -0.05859,-5.58789 0.15067,-1.77456 0.481934,-3.45132 1.021484,-5.00196 0.539551,-1.55064 1.28711,-2.97461 2.273438,-4.24414 0.986328,-1.26953 2.21017,-2.38518 3.701172,-3.3164 1.491001,-0.93123 3.249163,-1.67913 5.302734,-2.21485 1.22689,-0.32006 2.318102,-0.74222 3.455078,-1.13086 z"
           id="path4310" />
        <path
           style="color:#000000;clip-rule:nonzero;display:inline;overflow:visible;visibility:visible;opacity:1;isolation:auto;mix-blend-mode:normal;color-interpolation:sRGB;color-interpolation-filters:linearRGB;solid-color:#000000;solid-opacity:1;fill:#008eca;fill-opacity:1;fill-rule:evenodd;stroke:none;stroke-width:8.19999981;stroke-linecap:round;stroke-linejoin:miter;stroke-miterlimit:4;stroke-dasharray:none;stroke-dashoffset:0;stroke-opacity:1;color-rendering:auto;image-rendering:auto;shape-rendering:auto;text-rendering:auto;enable-background:accumulate"
           d="m -19.402344,536.94531 c -1.136976,0.38864 -2.228188,0.8108 -3.455078,1.13086 -2.053571,0.53572 -3.811733,1.28362 -5.302734,2.21485 -1.491002,0.93122 -2.714844,2.04687 -3.701172,3.3164 -0.986328,1.26953 -1.733887,2.6935 -2.273438,4.24414 -0.53955,1.55064 -0.870814,3.2274 -1.021484,5.00196 -0.15067,1.77455 -0.121722,3.64662 0.05859,5.58789 0.180315,1.94126 0.511439,3.95117 0.964844,6.00195 0.453404,2.05078 1.028669,4.143 1.697265,6.24609 0.668597,2.1031 1.43192,4.2182 2.257813,6.31641 1.651785,4.19643 3.558593,8.3245 5.492187,12.1582 1.933594,3.83371 3.892299,7.37138 5.644531,10.38477 0.772153,1.3279 0.691136,1.08875 1.363282,2.19336 0.003,-1.33889 0.169604,-2.56936 0.535156,-3.66602 11.4285711,-34.28571 95.786317,112.26641 95.786317,112.26641 l 32.294175,-5.36875 c 0,0 -76.822057,-173.58359 -130.340258,-168.02852 z"
           id="path4274"
           inkscape:connector-curvature="0"
           sodipodi:nodetypes="cssssssssssscsccc" />
      </g>
      <circle
         r="40.726898"
         cy="950.93365"
         cx="277.14285"
         id="path4279"
         style="color:#000000;clip-rule:nonzero;display:inline;overflow:visible;visibility:visible;opacity:1;isolation:auto;mix-blend-mode:normal;color-interpolation:sRGB;color-interpolation-filters:linearRGB;solid-color:#000000;solid-opacity:1;fill:#008eca;fill-opacity:1;fill-rule:evenodd;stroke:none;stroke-width:8.19999981;stroke-linecap:round;stroke-linejoin:miter;stroke-miterlimit:4;stroke-dasharray:none;stroke-dashoffset:0;stroke-opacity:1;color-rendering:auto;image-rendering:auto;shape-rendering:auto;text-rendering:auto;enable-background:accumulate" />
      <circle
         style="color:#000000;clip-rule:nonzero;display:inline;overflow:visible;visibility:visible;opacity:1;isolation:auto;mix-blend-mode:normal;color-interpolation:sRGB;color-interpolation-filters:linearRGB;solid-color:#000000;solid-opacity:1;fill:#008eca;fill-opacity:1;fill-rule:evenodd;stroke:none;stroke-width:8.19999981;stroke-linecap:round;stroke-linejoin:miter;stroke-miterlimit:4;stroke-dasharray:none;stroke-dashoffset:0;stroke-opacity:1;color-rendering:auto;image-rendering:auto;shape-rendering:auto;text-rendering:auto;enable-background:accumulate"
         id="circle4281"
         cx="602.85712"
         cy="945.21936"
         r="31.428574" />
      <path
         sodipodi:nodetypes="cc"
         inkscape:connector-curvature="0"
         id="path4285"
         d="m 97.142857,972.3622 c 0,0 294.285713,208.5714 682.857143,-17.14285"
         style="color:#000000;clip-rule:nonzero;display:inline;overflow:visible;visibility:visible;opacity:1;isolation:auto;mix-blend-mode:normal;color-interpolation:sRGB;color-interpolation-filters:linearRGB;solid-color:#000000;solid-opacity:1;fill:none;fill-opacity:1;fill-rule:evenodd;stroke:#008eca;stroke-width:8.80000019;stroke-linecap:round;stroke-linejoin:miter;stroke-miterlimit:4;stroke-dasharray:none;stroke-dashoffset:0;stroke-opacity:1;color-rendering:auto;image-rendering:auto;shape-rendering:auto;text-rendering:auto;enable-background:accumulate" />
      <g
         transform="matrix(-1,0,0,1,849.78193,10)"
         id="g4318">
        <path
           inkscape:connector-curvature="0"
           id="path4320"
           d="m -19.402344,536.94531 c -6.512523,0.67599 -12.645492,3.87098 -18.152344,10.56055 -1.831169,2.22445 -3.61155,4.72845 -5.302734,7.71289 -48.571428,85.71428 120,217.14258 120,217.14258 l 65.714842,17.14453 c 0,0 -160.625536,-147.24387 -160.535154,-187.76367 -0.672146,-1.10461 -0.591129,-0.86546 -1.363282,-2.19336 -1.752232,-3.01339 -3.710937,-6.55106 -5.644531,-10.38477 -1.933594,-3.8337 -3.840402,-7.96177 -5.492187,-12.1582 -0.825893,-2.09821 -1.589216,-4.21331 -2.257813,-6.31641 -0.668596,-2.10309 -1.243861,-4.19531 -1.697265,-6.24609 -0.453405,-2.05078 -0.784529,-4.06069 -0.964844,-6.00195 -0.180316,-1.94127 -0.209264,-3.81334 -0.05859,-5.58789 0.15067,-1.77456 0.481934,-3.45132 1.021484,-5.00196 0.539551,-1.55064 1.28711,-2.97461 2.273438,-4.24414 0.986328,-1.26953 2.21017,-2.38518 3.701172,-3.3164 1.491001,-0.93123 3.249163,-1.67913 5.302734,-2.21485 1.22689,-0.32006 2.318102,-0.74222 3.455078,-1.13086 z"
           style="color:#000000;clip-rule:nonzero;display:inline;overflow:visible;visibility:visible;opacity:1;isolation:auto;mix-blend-mode:normal;color-interpolation:sRGB;color-interpolation-filters:linearRGB;solid-color:#000000;solid-opacity:1;fill:#a3e4ff;fill-opacity:1;fill-rule:evenodd;stroke:none;stroke-width:8.19999981;stroke-linecap:round;stroke-linejoin:miter;stroke-miterlimit:4;stroke-dasharray:none;stroke-dashoffset:0;stroke-opacity:1;color-rendering:auto;image-rendering:auto;shape-rendering:auto;text-rendering:auto;enable-background:accumulate" />
        <path
           sodipodi:nodetypes="cssssssssssscsccc"
           inkscape:connector-curvature="0"
           id="path4322"
           d="m -19.402344,536.94531 c -1.136976,0.38864 -2.228188,0.8108 -3.455078,1.13086 -2.053571,0.53572 -3.811733,1.28362 -5.302734,2.21485 -1.491002,0.93122 -2.714844,2.04687 -3.701172,3.3164 -0.986328,1.26953 -1.733887,2.6935 -2.273438,4.24414 -0.53955,1.55064 -0.870814,3.2274 -1.021484,5.00196 -0.15067,1.77455 -0.121722,3.64662 0.05859,5.58789 0.180315,1.94126 0.511439,3.95117 0.964844,6.00195 0.453404,2.05078 1.028669,4.143 1.697265,6.24609 0.668597,2.1031 1.43192,4.2182 2.257813,6.31641 1.651785,4.19643 3.558593,8.3245 5.492187,12.1582 1.933594,3.83371 3.892299,7.37138 5.644531,10.38477 0.772153,1.3279 0.691136,1.08875 1.363282,2.19336 0.003,-1.33889 0.169604,-2.56936 0.535156,-3.66602 11.4285711,-34.28571 95.786317,112.26641 95.786317,112.26641 l 32.294175,-5.36875 c 0,0 -76.822057,-173.58359 -130.340258,-168.02852 z"
           style="color:#000000;clip-rule:nonzero;display:inline;overflow:visible;visibility:visible;opacity:1;isolation:auto;mix-blend-mode:normal;color-interpolation:sRGB;color-interpolation-filters:linearRGB;solid-color:#000000;solid-opacity:1;fill:#008eca;fill-opacity:1;fill-rule:evenodd;stroke:none;stroke-width:8.19999981;stroke-linecap:round;stroke-linejoin:miter;stroke-miterlimit:4;stroke-dasharray:none;stroke-dashoffset:0;stroke-opacity:1;color-rendering:auto;image-rendering:auto;shape-rendering:auto;text-rendering:auto;enable-background:accumulate" />
      </g>
      <path
         style="color:#000000;clip-rule:nonzero;display:inline;overflow:visible;visibility:visible;opacity:1;isolation:auto;mix-blend-mode:normal;color-interpolation:sRGB;color-interpolation-filters:linearRGB;solid-color:#000000;solid-opacity:1;fill:none;fill-opacity:1;fill-rule:evenodd;stroke:#008eca;stroke-width:15.56737232;stroke-linecap:round;stroke-linejoin:miter;stroke-miterlimit:4;stroke-dasharray:none;stroke-dashoffset:0;stroke-opacity:1;color-rendering:auto;image-rendering:auto;shape-rendering:auto;text-rendering:auto;enable-background:accumulate"
         d="m 105.71429,1005.2193 c 0,0 191.53145,158.2763 388.60437,112.323 C 611.94653,1090.114 644.50598,1063.8309 770,990.93364"
         id="path4324"
         inkscape:connector-curvature="0"
         sodipodi:nodetypes="csc" />
    </g>
    <text
       sodipodi:linespacing="160%"
       id="text4345"
       y="45.585632"
       x="-429.34027"
       style="color:#000000;font-style:normal;font-variant:normal;font-weight:normal;font-stretch:normal;font-size:63.98281097px;line-height:160.00000238%;font-family:Chalkduster;-inkscape-font-specification:Chalkduster;text-align:start;text-anchor:start;clip-rule:nonzero;display:inline;overflow:visible;visibility:visible;opacity:1;isolation:auto;mix-blend-mode:normal;color-interpolation:sRGB;color-interpolation-filters:linearRGB;solid-color:#000000;solid-opacity:1;fill:#a3e4ff;fill-opacity:1;fill-rule:evenodd;stroke:none;stroke-width:8.19999981;stroke-linecap:round;stroke-linejoin:miter;stroke-miterlimit:4;stroke-dasharray:none;stroke-dashoffset:0;stroke-opacity:1;color-rendering:auto;image-rendering:auto;shape-rendering:auto;text-rendering:auto;enable-background:accumulate"
       xml:space="preserve"><tspan
         style="font-style:normal;font-variant:normal;font-weight:normal;font-stretch:normal;line-height:160.00000238%;font-family:'HanziPen TC';-inkscape-font-specification:'HanziPen TC';text-align:start;text-anchor:start;fill:#a3e4ff;fill-opacity:1"
         id="tspan4347"
         y="45.585632"
         x="-429.34027"
         sodipodi:role="line">clothes before code!</tspan><tspan
         style="font-style:normal;font-variant:normal;font-weight:normal;font-stretch:normal;font-size:32.81480789px;line-height:160.00000238%;font-family:'HanziPen TC';-inkscape-font-specification:'HanziPen TC';text-align:start;baseline-shift:super;text-anchor:start;fill:#a3e4ff;fill-opacity:1"
         id="tspan4349"
         y="147.95813"
         x="-429.34027"
         sodipodi:role="line" /></text>
    <g
       id="g4359"
       transform="matrix(0.75287127,0,0,0.75287127,286.31494,-250.83843)">
      <path
         sodipodi:nodetypes="cccccccc"
         inkscape:connector-curvature="0"
         id="path4351"
         d="m -157.5838,49.280727 -72.73098,36.365492 34.34519,38.385801 33.33503,-7.07107 -11.11168,32.32488 35.35534,33.33503 51.517781,-79.80205 z"
         style="color:#000000;clip-rule:nonzero;display:inline;overflow:visible;visibility:visible;opacity:1;isolation:auto;mix-blend-mode:normal;color-interpolation:sRGB;color-interpolation-filters:linearRGB;solid-color:#000000;solid-opacity:1;fill:#ff0000;fill-opacity:1;fill-rule:evenodd;stroke:none;stroke-width:8.80000019;stroke-linecap:round;stroke-linejoin:miter;stroke-miterlimit:4;stroke-dasharray:none;stroke-dashoffset:0;stroke-opacity:1;color-rendering:auto;image-rendering:auto;shape-rendering:auto;text-rendering:auto;enable-background:accumulate" />
      <path
         sodipodi:nodetypes="ccccc"
         inkscape:connector-curvature="0"
         id="path4353"
         d="M -87.883271,103.82897 -159.6041,50.29088 -143.44166,36.148745 -75.761441,89.686829 Z"
         style="color:#000000;clip-rule:nonzero;display:inline;overflow:visible;visibility:visible;opacity:1;isolation:auto;mix-blend-mode:normal;color-interpolation:sRGB;color-interpolation-filters:linearRGB;solid-color:#000000;solid-opacity:1;fill:#d40000;fill-opacity:1;fill-rule:evenodd;stroke:none;stroke-width:8.80000019;stroke-linecap:round;stroke-linejoin:miter;stroke-miterlimit:4;stroke-dasharray:none;stroke-dashoffset:0;stroke-opacity:1;color-rendering:auto;image-rendering:auto;shape-rendering:auto;text-rendering:auto;enable-background:accumulate" />
    </g>
    <path
       style="color:#000000;clip-rule:nonzero;display:inline;overflow:visible;visibility:visible;opacity:1;isolation:auto;mix-blend-mode:normal;color-interpolation:sRGB;color-interpolation-filters:linearRGB;solid-color:#000000;solid-opacity:1;fill:#ff6600;fill-opacity:1;fill-rule:evenodd;stroke:none;stroke-width:8.80000019;stroke-linecap:round;stroke-linejoin:miter;stroke-miterlimit:4;stroke-dasharray:none;stroke-dashoffset:0;stroke-opacity:1;color-rendering:auto;image-rendering:auto;shape-rendering:auto;text-rendering:auto;enable-background:accumulate"
       d="m 209.93375,-114.76906 15.26729,31.113588 c 0,0 26.95877,-23.857968 35.84818,-21.650878 12.53446,3.11211 33.48985,-6.10943 22.54227,-20.38754 -20.33169,-26.51719 -7.83287,-52.81122 -14.80828,-56.74785 -6.97541,-3.9366 -23.24037,1.31649 -23.93208,20.59369 -0.69167,19.2772 6.31031,28.18107 0.18599,34.7708 -6.12434,6.5897 -35.10337,12.30819 -35.10337,12.30819 z"
       id="path4357"
       inkscape:connector-curvature="0"
       sodipodi:nodetypes="ccsssssc" />
    <path
       sodipodi:type="star"
       style="color:#000000;clip-rule:nonzero;display:inline;overflow:visible;visibility:visible;opacity:1;isolation:auto;mix-blend-mode:normal;color-interpolation:sRGB;color-interpolation-filters:linearRGB;solid-color:#000000;solid-opacity:1;fill:#ff0000;fill-opacity:1;fill-rule:evenodd;stroke:none;stroke-width:8.80000019;stroke-linecap:round;stroke-linejoin:miter;stroke-miterlimit:4;stroke-dasharray:none;stroke-dashoffset:0;stroke-opacity:1;color-rendering:auto;image-rendering:auto;shape-rendering:auto;text-rendering:auto;enable-background:accumulate"
       id="path4367"
       sodipodi:sides="5"
       sodipodi:cx="-465.22269"
       sodipodi:cy="-97.442299"
       sodipodi:r1="27.832005"
       sodipodi:r2="13.916002"
       sodipodi:arg1="1.0471976"
       sodipodi:arg2="1.6755161"
       inkscape:flatsided="false"
       inkscape:rounded="0"
       inkscape:randomized="0"
       d="m -451.30669,-73.339075 -15.37062,-10.263455 -17.16862,6.84344 5.01134,-17.78991 -11.8139,-14.2136 18.4678,-0.73131 9.86724,-15.62793 6.40239,17.33794 17.91218,4.555 -14.51091,11.446749 z"
       inkscape:transform-center-x="-0.89902176"
       inkscape:transform-center-y="-1.7881588" />
  </g>
</svg>
